{"title":"Four.Weddings.and.a.Funeral.1994.BRRip.XviD.MP3-RARBG","uid":12169518,"size":1597132147,"categoryP":"video","categoryS":"movies","magnet":"?xt=urn:btih:ea74ede7f5d6de2e3bd3308193d3716caa474880&amp;dn=Four.Weddings.and.a.Funeral.1994.BRRip.XviD.MP3-RARBG&amp;tr=udp%3A%2F%2Ftracker.openbittorrent.com%3A80&amp;tr=udp%3A%2F%2Fopen.demonii.com%3A1337&amp;tr=udp%3A%2F%2Ftracker.coppersurfer.tk%3A6969&amp;tr=udp%3A%2F%2Fexodus.desync.com%3A6969","seeders":0,"leechers":0,"uploader":null,"files":5,"time":1438111023,"description":"Video\nID                                       : 0\nFormat                                   : MPEG-4 Visual\nFormat profile                           : Simple@L5\nFormat settings, BVOP                    : No\nFormat settings, QPel                    : No\nFormat settings, GMC                     : No warppoints\nFormat settings, Matrix                  : Default (H.263)\nCodec ID                                 : XVID\nCodec ID/Hint                            : XviD\nDuration                                 : 1h 57mn\nBit rate                                 : 1 599 Kbps\nWidth                                    : 720 pixels\nHeight                                   : 390 pixels\nDisplay aspect ratio                     : 1.85:1\nFrame rate                               : 23.976 fps\nColor space                              : YUV\nChroma subsampling                       : 4:2:0\nBit depth                                : 8 bits\nScan type                                : Progressive\nCompression mode                         : Lossy\nBits/(Pixel*Frame)                       : 0.238\nStream size                              : 1.32 GiB (89%)\nTitle                                    : RARBG.COM - Four.Weddings.and.a.Funeral.1994.BRRip.XviD.MP3-RARBG\nWriting library                          : Lavc56.19.100\n\nAudio\nID                                       : 1\nFormat                                   : MPEG Audio\nFormat version                           : Version 1\nFormat profile                           : Layer 3\nMode                                     : Joint stereo\nMode extension                           : MS Stereo\nCodec ID                                 : 55\nCodec ID/Hint                            : MP3\nDuration                                 : 1h 57mn\nBit rate mode                            : Constant\nBit rate                                 : 192 Kbps\nChannel(s)                               : 2 channels\nSampling rate                            : 48.0 KHz\nCompression mode                         : Lossy\nStream size                              : 162 MiB (11%)\nAlignment                                : Aligned on interleaves\nInterleave, duration                     : 24 ms (0.58 video frame)\nInterleave, preload duration             : 24 ms\nTitle                                    : RARBG.COM - Four.Weddings.and.a.Funeral.1994.BRRip.XviD.MP3-RARBG\nWriting library                          : LAME3.99.5","torrent":{"xt":"urn:btih:ea74ede7f5d6de2e3bd3308193d3716caa474880","amp;dn":"Four.Weddings.and.a.Funeral.1994.BRRip.XviD.MP3-RARBG","amp;tr":["udp%3A%2F%2Ftracker.openbittorrent.com%3A80","udp%3A%2F%2Fopen.demonii.com%3A1337","udp%3A%2F%2Ftracker.coppersurfer.tk%3A6969","udp%3A%2F%2Fexodus.desync.com%3A6969"],"infoHash":"ea74ede7f5d6de2e3bd3308193d3716caa474880","infoHashBuffer":{"type":"Buffer","data":[234,116,237,231,245,214,222,46,59,211,48,129,147,211,113,108,170,71,72,128]},"announce":[],"urlList":[]}}